<svg width="126" height="175" viewBox="0 0 126 175" fill="none" xmlns="http://www.w3.org/2000/svg">
<path fill-rule="evenodd" clip-rule="evenodd" d="M1.96131 156.7C3.16058 158.975 5.29884 161.114 9.57538 165.39C13.8519 169.667 15.9902 171.805 18.2654 173.004C23.2265 175.619 29.1582 175.619 34.1194 173.004C36.3946 171.805 38.5329 169.667 42.8094 165.39L62.9619 145.238L83.1145 165.39L83.1146 165.39C87.391 169.667 89.5293 171.805 91.8045 173.004C96.7656 175.619 102.697 175.619 107.659 173.004C109.934 171.805 112.072 169.667 116.349 165.39C120.625 161.114 122.763 158.975 123.963 156.7C126.578 151.739 126.578 145.807 123.963 140.846C122.763 138.571 120.625 136.433 116.349 132.156L113.177 128.985C109.548 125.356 107.733 123.541 105.589 122.37C103.691 121.333 101.611 120.668 99.4635 120.41C97.0378 120.119 94.5069 120.544 89.4451 121.393L86.2753 121.924L116.349 91.851C120.625 87.5745 122.763 85.4362 123.963 83.161C126.578 78.1999 126.578 72.2682 123.963 67.307C122.763 65.0318 120.625 62.8935 116.349 58.617C112.072 54.3405 109.934 52.2022 107.659 51.0029C102.697 48.3879 96.7656 48.3879 91.8045 51.0029C89.5293 52.2022 87.391 54.3405 83.1145 58.617L53.7587 87.9728L54.0391 86.4353C54.9755 81.3013 55.4437 78.7342 55.1731 76.2689C54.9335 74.086 54.2732 71.9702 53.2287 70.0385C52.0491 67.8568 50.204 66.0117 46.5138 62.3215L42.8094 58.617C38.5329 54.3405 36.3946 52.2022 34.1194 51.003C29.1582 48.3879 23.2265 48.3879 18.2654 51.003C15.9902 52.2022 13.8519 54.3405 9.57538 58.617C5.29884 62.8936 3.16058 65.0318 1.96131 67.307C-0.65377 72.2682 -0.65377 78.1999 1.96131 83.1611C3.16058 85.4363 5.29884 87.5745 9.57538 91.8511L29.7279 112.004L9.57538 132.156C5.29884 136.433 3.16058 138.571 1.96131 140.846C-0.65377 145.807 -0.65377 151.739 1.96131 156.7ZM29.7279 112.004L62.9619 145.238L86.2753 121.924L84.5537 122.213C71.6952 124.369 65.266 125.448 60.6522 123.447C56.6151 121.697 53.4139 118.45 51.7215 114.389C49.7873 109.747 50.957 103.333 53.2965 90.507L53.7587 87.9728L29.7279 112.004Z" fill="url(#paint0_linear_8_24)"/>
<circle cx="62.5" cy="24.5" r="24.5" fill="#4CA5A6"/>
<defs>
<linearGradient id="paint0_linear_8_24" x1="122" y1="44.5" x2="-3.50058e-07" y2="166.5" gradientUnits="userSpaceOnUse">
<stop stop-color="#1B426C"/>
<stop offset="0.651182" stop-color="#225388"/>
<stop offset="0.655642" stop-color="#4CA5A6"/>
</linearGradient>
</defs>
</svg>
