<svg width="8" height="31" viewBox="0 0 8 31" fill="none" xmlns="http://www.w3.org/2000/svg">
<path d="M4 29.6667C5.47276 29.6667 6.66667 28.4728 6.66667 27C6.66667 25.5272 5.47276 24.3333 4 24.3333C2.52724 24.3333 1.33333 25.5272 1.33333 27C1.33333 28.4728 2.52724 29.6667 4 29.6667ZM4 6.66667C5.47276 6.66667 6.66667 5.47276 6.66667 4C6.66667 2.52724 5.47276 1.33333 4 1.33333C2.52724 1.33333 1.33333 2.52724 1.33333 4C1.33333 5.47276 2.52724 6.66667 4 6.66667ZM4.5 26.5208C4.5 26.2447 4.27614 26.0208 4 26.0208C3.72386 26.0208 3.5 26.2447 3.5 26.5208H4.5ZM3.5 24.6042C3.5 24.8803 3.72386 25.1042 4 25.1042C4.27614 25.1042 4.5 24.8803 4.5 24.6042H3.5ZM4.5 23.6458C4.5 23.3697 4.27614 23.1458 4 23.1458C3.72386 23.1458 3.5 23.3697 3.5 23.6458H4.5ZM3.5 21.7292C3.5 22.0053 3.72386 22.2292 4 22.2292C4.27614 22.2292 4.5 22.0053 4.5 21.7292H3.5ZM4.5 20.7708C4.5 20.4947 4.27614 20.2708 4 20.2708C3.72386 20.2708 3.5 20.4947 3.5 20.7708H4.5ZM3.5 18.8542C3.5 19.1303 3.72386 19.3542 4 19.3542C4.27614 19.3542 4.5 19.1303 4.5 18.8542H3.5ZM4.5 17.8958C4.5 17.6197 4.27614 17.3958 4 17.3958C3.72386 17.3958 3.5 17.6197 3.5 17.8958H4.5ZM3.5 15.9792C3.5 16.2553 3.72386 16.4792 4 16.4792C4.27614 16.4792 4.5 16.2553 4.5 15.9792H3.5ZM4.5 15.0208C4.5 14.7447 4.27614 14.5208 4 14.5208C3.72386 14.5208 3.5 14.7447 3.5 15.0208H4.5ZM3.5 13.1042C3.5 13.3803 3.72386 13.6042 4 13.6042C4.27614 13.6042 4.5 13.3803 4.5 13.1042H3.5ZM4.5 12.1458C4.5 11.8697 4.27614 11.6458 4 11.6458C3.72386 11.6458 3.5 11.8697 3.5 12.1458H4.5ZM3.5 10.2292C3.5 10.5053 3.72386 10.7292 4 10.7292C4.27614 10.7292 4.5 10.5053 4.5 10.2292H3.5ZM4.5 9.27083C4.5 8.99469 4.27614 8.77083 4 8.77083C3.72386 8.77083 3.5 8.99469 3.5 9.27083H4.5ZM3.5 7.35417C3.5 7.63031 3.72386 7.85417 4 7.85417C4.27614 7.85417 4.5 7.63031 4.5 7.35417H3.5ZM4.5 6.39583C4.5 6.11969 4.27614 5.89583 4 5.89583C3.72386 5.89583 3.5 6.11969 3.5 6.39583H4.5ZM3.5 4.47917C3.5 4.75531 3.72386 4.97917 4 4.97917C4.27614 4.97917 4.5 4.75531 4.5 4.47917H3.5ZM4.5 27V26.5208H3.5V27H4.5ZM4.5 24.6042V23.6458H3.5V24.6042H4.5ZM4.5 21.7292V20.7708H3.5V21.7292H4.5ZM4.5 18.8542L4.5 17.8958H3.5V18.8542H4.5ZM4.5 15.9792V15.0208H3.5V15.9792H4.5ZM4.5 13.1042V12.1458H3.5V13.1042H4.5ZM4.5 10.2292V9.27083H3.5L3.5 10.2292H4.5ZM4.5 7.35417V6.39583H3.5V7.35417H4.5ZM4.5 4.47917V4H3.5V4.47917H4.5Z" fill="black"/>
<circle cx="4" cy="4" r="3.5" stroke="black"/>
<circle cx="4" cy="27" r="3.5" stroke="black"/>
</svg>
