<svg width="6" height="29" viewBox="0 0 6 29" fill="none" xmlns="http://www.w3.org/2000/svg">
<path d="M3 28.6667C4.47276 28.6667 5.66667 27.4728 5.66667 26C5.66667 24.5272 4.47276 23.3333 3 23.3333C1.52724 23.3333 0.333333 24.5272 0.333333 26C0.333333 27.4728 1.52724 28.6667 3 28.6667ZM3 5.66667C4.47276 5.66667 5.66667 4.47276 5.66667 3C5.66667 1.52724 4.47276 0.333333 3 0.333333C1.52724 0.333333 0.333333 1.52724 0.333333 3C0.333333 4.47276 1.52724 5.66667 3 5.66667ZM3.5 25.5208C3.5 25.2447 3.27614 25.0208 3 25.0208C2.72386 25.0208 2.5 25.2447 2.5 25.5208H3.5ZM2.5 23.6042C2.5 23.8803 2.72386 24.1042 3 24.1042C3.27614 24.1042 3.5 23.8803 3.5 23.6042H2.5ZM3.5 22.6458C3.5 22.3697 3.27614 22.1458 3 22.1458C2.72386 22.1458 2.5 22.3697 2.5 22.6458H3.5ZM2.5 20.7292C2.5 21.0053 2.72386 21.2292 3 21.2292C3.27614 21.2292 3.5 21.0053 3.5 20.7292H2.5ZM3.5 19.7708C3.5 19.4947 3.27614 19.2708 3 19.2708C2.72386 19.2708 2.5 19.4947 2.5 19.7708H3.5ZM2.5 17.8542C2.5 18.1303 2.72386 18.3542 3 18.3542C3.27614 18.3542 3.5 18.1303 3.5 17.8542H2.5ZM3.5 16.8958C3.5 16.6197 3.27614 16.3958 3 16.3958C2.72386 16.3958 2.5 16.6197 2.5 16.8958H3.5ZM2.5 14.9792C2.5 15.2553 2.72386 15.4792 3 15.4792C3.27614 15.4792 3.5 15.2553 3.5 14.9792H2.5ZM3.5 14.0208C3.5 13.7447 3.27614 13.5208 3 13.5208C2.72386 13.5208 2.5 13.7447 2.5 14.0208H3.5ZM2.5 12.1042C2.5 12.3803 2.72386 12.6042 3 12.6042C3.27614 12.6042 3.5 12.3803 3.5 12.1042H2.5ZM3.5 11.1458C3.5 10.8697 3.27614 10.6458 3 10.6458C2.72386 10.6458 2.5 10.8697 2.5 11.1458H3.5ZM2.5 9.22917C2.5 9.50531 2.72386 9.72917 3 9.72917C3.27614 9.72917 3.5 9.50531 3.5 9.22917H2.5ZM3.5 8.27083C3.5 7.99469 3.27614 7.77083 3 7.77083C2.72386 7.77083 2.5 7.99469 2.5 8.27083H3.5ZM2.5 6.35417C2.5 6.63031 2.72386 6.85417 3 6.85417C3.27614 6.85417 3.5 6.63031 3.5 6.35417H2.5ZM3.5 5.39583C3.5 5.11969 3.27614 4.89583 3 4.89583C2.72386 4.89583 2.5 5.11969 2.5 5.39583H3.5ZM2.5 3.47917C2.5 3.75531 2.72386 3.97917 3 3.97917C3.27614 3.97917 3.5 3.75531 3.5 3.47917H2.5ZM3.5 26V25.5208H2.5V26H3.5ZM3.5 23.6042V22.6458H2.5V23.6042H3.5ZM3.5 20.7292L3.5 19.7708H2.5V20.7292H3.5ZM3.5 17.8542V16.8958H2.5V17.8542H3.5ZM3.5 14.9792V14.0208H2.5V14.9792H3.5ZM3.5 12.1042V11.1458H2.5V12.1042H3.5ZM3.5 9.22917V8.27083H2.5L2.5 9.22917H3.5ZM3.5 6.35417L3.5 5.39583H2.5V6.35417H3.5ZM3.5 3.47917V3H2.5V3.47917H3.5Z" fill="#494949"/>
</svg>
